# xmcd CD database file
#
# Track frame offsets:
#	150
#	14505
#	32787
#	46887
#	64195
#	78250
#	97372
#	115707
#	131400
#	149072
#	166092
#	184240
#	203002
#	221000
#	246652
#
# Disc length: 3713 seconds
#
# Revision: 0
# Processed by: cddbd v1.5.1PL0 Copyright (c) Steve Scherf et al.
# Submitted via: CDex 1.51
#
DISCID=df0e7f0f
DTITLE=C-C-B - Romanticが止まらない
DYEAR=1993
DGENRE=J-Pop
TTITLE0=Romanticが止まらない
TTITLE1=スクール・ガール
TTITLE2=Lucky Chanceをもう一度
TTITLE3=空想Kiss
TTITLE4=元気なブロークン・ハート
TTITLE5=不自然な君が好き
TTITLE6=ないものねだりのI Want You
TTITLE7=2 Much,I Love U.
TTITLE8=原色したいね
TTITLE9=抱きしめたい
TTITLE10=恋文（ラブレター）
TTITLE11=信じていれば
TTITLE12=Love Is Magic
TTITLE13=元気なブロークン・ハート〜Broken Mix
TTITLE14=ないものねだりのI Want You〜ゼイ肉Mix
EXTD=YEAR: 1993
EXTT0=
EXTT1=
EXTT2=
EXTT3=
EXTT4=
EXTT5=
EXTT6=
EXTT7=
EXTT8=
EXTT9=
EXTT10=
EXTT11=
EXTT12=
EXTT13=
EXTT14=
PLAYORDER=
